<svg width="1036" height="1036" viewBox="0 0 1036 1036" fill="none" xmlns="http://www.w3.org/2000/svg">
<rect width="1036" height="1036" rx="200" fill="#49A1C7"/>
<g clip-path="url(#clip0_10_2)">
<path d="M352.491 540.82H429.222V856.71C429.222 862.946 434.276 868 440.512 868H570.613C576.85 868 581.903 862.946 581.903 856.71V542.308H670.112C675.848 542.308 680.673 538.004 681.328 532.307L694.725 416.012C695.093 412.813 694.079 409.608 691.939 407.208C689.796 404.805 686.729 403.43 683.512 403.43H581.908V330.531C581.908 308.555 593.74 297.412 617.079 297.412C620.406 297.412 683.512 297.412 683.512 297.412C689.748 297.412 694.802 292.356 694.802 286.122V179.374C694.802 173.137 689.748 168.084 683.512 168.084H591.958C591.313 168.052 589.879 168 587.765 168C571.88 168 516.663 171.118 473.047 211.244C424.719 255.71 431.437 308.951 433.043 318.182V403.428H352.491C346.254 403.428 341.2 408.482 341.2 414.718V529.527C341.2 535.764 346.254 540.82 352.491 540.82Z" fill="white"/>
</g>
<defs>
<clipPath id="clip0_10_2">
<rect width="700" height="700" fill="white" transform="translate(168 168)"/>
</clipPath>
</defs>
</svg>

