<svg width="1036" height="1036" viewBox="0 0 1036 1036" fill="none" xmlns="http://www.w3.org/2000/svg">
<rect width="1036" height="1036" rx="200" fill="#70C62C"/>
<g clip-path="url(#clip0_10_2)">
<path d="M685.964 570.229C684.6 569.575 633.568 544.445 624.5 541.182C620.798 539.852 616.832 538.554 612.614 538.554C605.723 538.554 599.934 541.989 595.425 548.734C590.327 556.311 574.895 574.35 570.127 579.738C569.504 580.45 568.654 581.3 568.145 581.3C567.689 581.3 559.791 578.048 557.4 577.009C502.657 553.229 461.104 496.045 455.407 486.402C454.593 485.016 454.559 484.386 454.552 484.386C454.752 483.652 456.593 481.807 457.543 480.854C460.323 478.104 463.334 474.479 466.248 470.973C467.627 469.311 469.009 467.648 470.366 466.079C474.593 461.161 476.475 457.343 478.657 452.92L479.8 450.623C485.127 440.039 480.577 431.107 479.107 428.223C477.9 425.809 456.352 373.804 454.061 368.341C448.552 355.157 441.273 349.018 431.157 349.018C430.218 349.018 431.157 349.018 427.22 349.184C422.427 349.386 396.325 352.823 384.784 360.098C372.545 367.814 351.841 392.409 351.841 435.664C351.841 474.593 376.545 511.35 387.152 525.329C387.416 525.682 387.9 526.398 388.602 527.425C429.223 586.748 479.861 630.711 531.195 651.218C580.616 670.959 604.018 673.241 617.323 673.241H617.325C622.916 673.241 627.391 672.802 631.339 672.414L633.843 672.175C650.916 670.661 688.434 651.22 696.968 627.504C703.691 608.825 705.464 588.416 700.991 581.009C697.927 575.973 692.648 573.439 685.964 570.229Z" fill="white"/>
<path d="M524.213 168C334.631 168 180.395 321.077 180.395 509.234C180.395 570.091 196.681 629.661 227.534 681.798L168.481 855.991C167.381 859.239 168.199 862.83 170.602 865.275C172.336 867.045 174.688 868 177.09 868C178.011 868 178.938 867.861 179.843 867.573L361.479 809.855C411.184 836.411 467.361 850.43 524.215 850.43C713.779 850.432 867.999 697.37 867.999 509.234C867.999 321.077 713.779 168 524.213 168ZM524.213 779.35C470.715 779.35 418.899 763.902 374.359 734.675C372.861 733.691 371.122 733.186 369.372 733.186C368.447 733.186 367.52 733.327 366.618 733.614L275.629 762.536L305.002 675.88C305.952 673.075 305.477 669.982 303.727 667.591C269.809 621.245 251.879 566.489 251.879 509.234C251.879 360.273 374.047 239.082 524.211 239.082C674.356 239.082 796.511 360.273 796.511 509.234C796.513 658.177 674.361 779.35 524.213 779.35Z" fill="white"/>
</g>
<defs>
<clipPath id="clip0_10_2">
<rect width="700" height="700" fill="white" transform="translate(168 168)"/>
</clipPath>
</defs>
</svg>
